<svg width="30" height="30" viewBox="0 0 30 30" fill="none" xmlns="http://www.w3.org/2000/svg">
<g id="ant-design:instagram-outlined" clip-path="url(#clip0_2872_10656)">
<path id="Vector" d="M14.9998 7.30887C10.7435 7.30887 7.30854 10.7439 7.30854 15.0001C7.30854 19.2564 10.7435 22.6914 14.9998 22.6914C19.2561 22.6914 22.6911 19.2564 22.6911 15.0001C22.6911 10.7439 19.2561 7.30887 14.9998 7.30887ZM14.9998 19.9989C12.2473 19.9989 10.001 17.7526 10.001 15.0001C10.001 12.2476 12.2473 10.0014 14.9998 10.0014C17.7523 10.0014 19.9986 12.2476 19.9986 15.0001C19.9986 17.7526 17.7523 19.9989 14.9998 19.9989ZM23.0061 5.20137C22.0123 5.20137 21.2098 6.00387 21.2098 6.99762C21.2098 7.99137 22.0123 8.79387 23.0061 8.79387C23.9998 8.79387 24.8023 7.99512 24.8023 6.99762C24.8026 6.76165 24.7563 6.52794 24.6662 6.30988C24.576 6.09181 24.4437 5.89368 24.2769 5.72682C24.11 5.55996 23.9119 5.42766 23.6938 5.3375C23.4757 5.24733 23.242 5.20107 23.0061 5.20137ZM29.9923 15.0001C29.9923 12.9301 30.0111 10.8789 29.8948 8.81262C29.7786 6.41262 29.2311 4.28262 27.4761 2.52762C25.7173 0.768869 23.5911 0.225119 21.1911 0.108869C19.1211 -0.00738074 17.0698 0.0113693 15.0035 0.0113693C12.9335 0.0113693 10.8823 -0.00738074 8.81604 0.108869C6.41604 0.225119 4.28604 0.772619 2.53104 2.52762C0.772288 4.28637 0.228537 6.41262 0.112287 8.81262C-0.00396278 10.8826 0.0147873 12.9339 0.0147873 15.0001C0.0147873 17.0664 -0.00396278 19.1214 0.112287 21.1876C0.228537 23.5876 0.776038 25.7176 2.53104 27.4726C4.28979 29.2314 6.41604 29.7751 8.81604 29.8914C10.886 30.0076 12.9373 29.9889 15.0035 29.9889C17.0735 29.9889 19.1248 30.0076 21.1911 29.8914C23.5911 29.7751 25.7211 29.2276 27.4761 27.4726C29.2348 25.7139 29.7786 23.5876 29.8948 21.1876C30.0148 19.1214 29.9923 17.0701 29.9923 15.0001ZM26.6923 23.8426C26.4186 24.5251 26.0886 25.0351 25.5598 25.5601C25.0311 26.0889 24.5248 26.4189 23.8423 26.6926C21.8698 27.4764 17.1861 27.3001 14.9998 27.3001C12.8135 27.3001 8.12604 27.4764 6.15354 26.6964C5.47104 26.4226 4.96104 26.0926 4.43604 25.5639C3.90729 25.0351 3.57729 24.5289 3.30354 23.8464C2.52354 21.8701 2.69979 17.1864 2.69979 15.0001C2.69979 12.8139 2.52354 8.12637 3.30354 6.15387C3.57729 5.47137 3.90729 4.96137 4.43604 4.43637C4.96479 3.91137 5.47104 3.57762 6.15354 3.30387C8.12604 2.52387 12.8135 2.70012 14.9998 2.70012C17.1861 2.70012 21.8736 2.52387 23.8461 3.30387C24.5286 3.57762 25.0386 3.90762 25.5636 4.43637C26.0923 4.96512 26.4223 5.47137 26.6961 6.15387C27.4761 8.12637 27.2998 12.8139 27.2998 15.0001C27.2998 17.1864 27.4761 21.8701 26.6923 23.8426Z" fill="black"/>
</g>
<defs>
<clipPath id="clip0_2872_10656">
<rect width="30" height="30" fill="white"/>
</clipPath>
</defs>
</svg>
