<svg width="30" height="30" viewBox="0 0 30 30" fill="none" xmlns="http://www.w3.org/2000/svg">
<g id="logos:linkedin-icon" clip-path="url(#clip0_2872_10658)">
<path id="Vector" d="M25.5786 25.4624H21.1509V18.5282C21.1509 16.8747 21.1214 14.7461 18.848 14.7461C16.5419 14.7461 16.189 16.5477 16.189 18.4078V25.4619H11.7614V11.2024H16.0119V13.1512H16.0714C16.4968 12.4238 17.1115 11.8254 17.8501 11.4198C18.5886 11.0142 19.4233 10.8165 20.2654 10.8477C24.7531 10.8477 25.5805 13.7996 25.5805 17.6398L25.5786 25.4624ZM6.76526 9.25338C5.34615 9.25361 4.19553 8.10334 4.1953 6.68423C4.19507 5.26513 5.34522 4.11451 6.76433 4.11427C8.18343 4.11392 9.33405 5.26419 9.33429 6.6833C9.33441 7.36478 9.06382 8.0184 8.58204 8.50038C8.10025 8.98236 7.44674 9.25322 6.76526 9.25338ZM8.97919 25.4625H4.54678V11.2024H8.97907V25.4624L8.97919 25.4625ZM27.786 0.00217493H2.32187C1.11837 -0.0113659 0.131407 0.952719 0.116699 2.15622V27.7266C0.13094 28.9307 1.11779 29.8957 2.32176 29.8831H27.786C28.9926 29.898 29.9833 28.933 30 27.7266V2.15424C29.9828 0.9484 28.992 -0.0155683 27.786 0.000190493" fill="#0A66C2"/>
</g>
<defs>
<clipPath id="clip0_2872_10658">
<rect width="30" height="29.8833" fill="white"/>
</clipPath>
</defs>
</svg>
